<svg width="1745" height="494" viewBox="0 0 1745 494" fill="none" xmlns="http://www.w3.org/2000/svg">
<path d="M83.6 385L88.4 333.4H227.2L231.6 385H83.6ZM156.8 261.8L117.6 352.2L120.8 367L86 439H9.6L156.8 141.4L304.4 439H227.6L194 369.8L196.4 352.6L156.8 261.8ZM526.941 159H592.141V453L398.541 281.4V439H333.741V145L526.941 316.6V159ZM651.319 159H720.119V439H651.319V159ZM851.444 296.2L834.644 439H763.444L808.644 145L927.844 315.8L1047.44 145L1092.64 439H1021.44L1004.64 296.2L927.844 413L851.444 296.2ZM1135.69 159H1204.49V439H1135.69V159ZM1294.62 340.6C1300.22 350.733 1306.49 359.533 1313.42 367C1320.62 374.467 1328.35 380.2 1336.62 384.2C1345.15 388.2 1354.09 390.2 1363.42 390.2C1373.29 390.2 1381.42 387.8 1387.82 383C1394.22 377.933 1397.42 371.133 1397.42 362.6C1397.42 355.4 1395.55 349.667 1391.82 345.4C1388.09 340.867 1382.09 336.6 1373.82 332.6C1365.55 328.6 1354.62 324.067 1341.02 319C1334.35 316.6 1326.62 313.267 1317.82 309C1309.29 304.733 1301.15 299.267 1293.42 292.6C1285.69 285.667 1279.29 277.4 1274.22 267.8C1269.15 257.933 1266.62 246.067 1266.62 232.2C1266.62 215.667 1270.89 201.4 1279.42 189.4C1288.22 177.4 1299.95 168.333 1314.62 162.2C1329.55 155.8 1346.09 152.6 1364.22 152.6C1382.89 152.6 1399.02 155.667 1412.62 161.8C1426.49 167.933 1437.95 175.667 1447.02 185C1456.09 194.333 1463.02 203.8 1467.82 213.4L1416.22 242.2C1412.22 235.533 1407.55 229.8 1402.22 225C1397.15 219.933 1391.42 216.067 1385.02 213.4C1378.89 210.467 1372.22 209 1365.02 209C1355.42 209 1348.09 211.133 1343.02 215.4C1337.95 219.4 1335.42 224.467 1335.42 230.6C1335.42 237 1337.82 242.6 1342.62 247.4C1347.69 252.2 1354.75 256.6 1363.82 260.6C1373.15 264.6 1384.35 268.867 1397.42 273.4C1407.29 277.133 1416.49 281.533 1425.02 286.6C1433.55 291.4 1441.02 297.267 1447.42 304.2C1454.09 311.133 1459.29 319.133 1463.02 328.2C1466.75 337.267 1468.62 347.667 1468.62 359.4C1468.62 373.533 1465.69 386.2 1459.82 397.4C1454.22 408.333 1446.49 417.533 1436.62 425C1427.02 432.467 1415.95 438.067 1403.42 441.8C1391.15 445.8 1378.49 447.8 1365.42 447.8C1347.29 447.8 1330.35 444.6 1314.62 438.2C1299.15 431.533 1285.69 422.6 1274.22 411.4C1262.75 400.2 1253.82 387.933 1247.42 374.6L1294.62 340.6ZM1485.82 219.4V159H1707.42V219.4H1630.22V439H1562.62V219.4H1485.82Z" fill="#910A67"/>
<mask id="path-2-outside-1_206_5" maskUnits="userSpaceOnUse" x="-19" y="102" width="1730" height="367" fill="black">
<rect fill="white" x="-19" y="102" width="1730" height="367"/>
<path d="M74.6 374L79.4 322.4H218.2L222.6 374H74.6ZM147.8 250.8L108.6 341.2L111.8 356L77 428H0.6L147.8 130.4L295.4 428H218.6L185 358.8L187.4 341.6L147.8 250.8ZM517.941 148H583.141V442L389.541 270.4V428H324.741V134L517.941 305.6V148ZM642.319 148H711.119V428H642.319V148ZM842.444 285.2L825.644 428H754.444L799.644 134L918.844 304.8L1038.44 134L1083.64 428H1012.44L995.644 285.2L918.844 402L842.444 285.2ZM1126.69 148H1195.49V428H1126.69V148ZM1285.62 329.6C1291.22 339.733 1297.49 348.533 1304.42 356C1311.62 363.467 1319.35 369.2 1327.62 373.2C1336.15 377.2 1345.09 379.2 1354.42 379.2C1364.29 379.2 1372.42 376.8 1378.82 372C1385.22 366.933 1388.42 360.133 1388.42 351.6C1388.42 344.4 1386.55 338.667 1382.82 334.4C1379.09 329.867 1373.09 325.6 1364.82 321.6C1356.55 317.6 1345.62 313.067 1332.02 308C1325.35 305.6 1317.62 302.267 1308.82 298C1300.29 293.733 1292.15 288.267 1284.42 281.6C1276.69 274.667 1270.29 266.4 1265.22 256.8C1260.15 246.933 1257.62 235.067 1257.62 221.2C1257.62 204.667 1261.89 190.4 1270.42 178.4C1279.22 166.4 1290.95 157.333 1305.62 151.2C1320.55 144.8 1337.09 141.6 1355.22 141.6C1373.89 141.6 1390.02 144.667 1403.62 150.8C1417.49 156.933 1428.95 164.667 1438.02 174C1447.09 183.333 1454.02 192.8 1458.82 202.4L1407.22 231.2C1403.22 224.533 1398.55 218.8 1393.22 214C1388.15 208.933 1382.42 205.067 1376.02 202.4C1369.89 199.467 1363.22 198 1356.02 198C1346.42 198 1339.09 200.133 1334.02 204.4C1328.95 208.4 1326.42 213.467 1326.42 219.6C1326.42 226 1328.82 231.6 1333.62 236.4C1338.69 241.2 1345.75 245.6 1354.82 249.6C1364.15 253.6 1375.35 257.867 1388.42 262.4C1398.29 266.133 1407.49 270.533 1416.02 275.6C1424.55 280.4 1432.02 286.267 1438.42 293.2C1445.09 300.133 1450.29 308.133 1454.02 317.2C1457.75 326.267 1459.62 336.667 1459.62 348.4C1459.62 362.533 1456.69 375.2 1450.82 386.4C1445.22 397.333 1437.49 406.533 1427.62 414C1418.02 421.467 1406.95 427.067 1394.42 430.8C1382.15 434.8 1369.49 436.8 1356.42 436.8C1338.29 436.8 1321.35 433.6 1305.62 427.2C1290.15 420.533 1276.69 411.6 1265.22 400.4C1253.75 389.2 1244.82 376.933 1238.42 363.6L1285.62 329.6ZM1476.82 208.4V148H1698.42V208.4H1621.22V428H1553.62V208.4H1476.82Z"/>
</mask>
<path d="M74.6 374L62.6516 372.889L61.4319 386H74.6V374ZM79.4 322.4V310.4H68.4645L67.4516 321.289L79.4 322.4ZM218.2 322.4L230.157 321.38L229.22 310.4H218.2V322.4ZM222.6 374V386H235.667L234.557 372.98L222.6 374ZM147.8 250.8L158.799 246.003L147.768 220.71L136.791 246.026L147.8 250.8ZM108.6 341.2L97.5905 336.426L96.0558 339.965L96.871 343.736L108.6 341.2ZM111.8 356L122.604 361.222L124.402 357.502L123.529 353.464L111.8 356ZM77 428V440H84.5282L87.8042 433.222L77 428ZM0.6 428L-10.1562 422.68L-18.7232 440H0.6V428ZM147.8 130.4L158.55 125.068L147.785 103.363L137.044 125.08L147.8 130.4ZM295.4 428V440H314.746L306.15 422.668L295.4 428ZM218.6 428L207.805 433.241L211.087 440H218.6V428ZM185 358.8L173.115 357.142L172.611 360.757L174.205 364.041L185 358.8ZM187.4 341.6L199.285 343.258L199.753 339.906L198.399 336.803L187.4 341.6ZM86.5484 375.111L91.3484 323.511L67.4516 321.289L62.6516 372.889L86.5484 375.111ZM79.4 334.4H218.2V310.4H79.4V334.4ZM206.243 323.42L210.643 375.02L234.557 372.98L230.157 321.38L206.243 323.42ZM222.6 362H74.6V386H222.6V362ZM136.791 246.026L97.5905 336.426L119.609 345.974L158.809 255.574L136.791 246.026ZM96.871 343.736L100.071 358.536L123.529 353.464L120.329 338.664L96.871 343.736ZM100.996 350.778L66.1958 422.778L87.8042 433.222L122.604 361.222L100.996 350.778ZM77 416H0.6V440H77V416ZM11.3562 433.32L158.556 135.72L137.044 125.08L-10.1562 422.68L11.3562 433.32ZM137.05 135.732L284.65 433.332L306.15 422.668L158.55 125.068L137.05 135.732ZM295.4 416H218.6V440H295.4V416ZM229.395 422.759L195.795 353.559L174.205 364.041L207.805 433.241L229.395 422.759ZM196.885 360.458L199.285 343.258L175.515 339.942L173.115 357.142L196.885 360.458ZM198.399 336.803L158.799 246.003L136.801 255.597L176.401 346.397L198.399 336.803ZM517.941 148V136H505.941V148H517.941ZM583.141 148H595.141V136H583.141V148ZM583.141 442L575.181 450.98L595.141 468.672V442H583.141ZM389.541 270.4L397.5 261.42L377.541 243.728V270.4H389.541ZM389.541 428V440H401.541V428H389.541ZM324.741 428H312.741V440H324.741V428ZM324.741 134L332.71 125.028L312.741 107.292V134H324.741ZM517.941 305.6L509.972 314.572L529.941 332.308V305.6H517.941ZM517.941 160H583.141V136H517.941V160ZM571.141 148V442H595.141V148H571.141ZM591.1 433.02L397.5 261.42L381.581 279.38L575.181 450.98L591.1 433.02ZM377.541 270.4V428H401.541V270.4H377.541ZM389.541 416H324.741V440H389.541V416ZM336.741 428V134H312.741V428H336.741ZM316.772 142.972L509.972 314.572L525.91 296.628L332.71 125.028L316.772 142.972ZM529.941 305.6V148H505.941V305.6H529.941ZM642.319 148V136H630.319V148H642.319ZM711.119 148H723.119V136H711.119V148ZM711.119 428V440H723.119V428H711.119ZM642.319 428H630.319V440H642.319V428ZM642.319 160H711.119V136H642.319V160ZM699.119 148V428H723.119V148H699.119ZM711.119 416H642.319V440H711.119V416ZM654.319 428V148H630.319V428H654.319ZM842.444 285.2L852.486 278.631L834.389 250.964L830.526 283.798L842.444 285.2ZM825.644 428V440H836.315L837.562 429.402L825.644 428ZM754.444 428L742.583 426.177L740.458 440H754.444V428ZM799.644 134L809.484 127.132L792.336 102.561L787.783 132.177L799.644 134ZM918.844 304.8L909.003 311.668L918.827 325.744L928.673 311.683L918.844 304.8ZM1038.44 134L1050.3 132.177L1045.76 102.629L1028.61 127.117L1038.44 134ZM1083.64 428V440H1097.63L1095.5 426.177L1083.64 428ZM1012.44 428L1000.53 429.402L1001.77 440H1012.44V428ZM995.644 285.2L1007.56 283.798L1003.71 251.086L985.617 278.607L995.644 285.2ZM918.844 402L908.801 408.569L918.818 423.882L928.87 408.593L918.844 402ZM830.526 283.798L813.726 426.598L837.562 429.402L854.362 286.602L830.526 283.798ZM825.644 416H754.444V440H825.644V416ZM766.304 429.823L811.504 135.823L787.783 132.177L742.583 426.177L766.304 429.823ZM789.803 140.868L909.003 311.668L928.684 297.932L809.484 127.132L789.803 140.868ZM928.673 311.683L1048.27 140.883L1028.61 127.117L909.014 297.917L928.673 311.683ZM1026.58 135.823L1071.78 429.823L1095.5 426.177L1050.3 132.177L1026.58 135.823ZM1083.64 416H1012.44V440H1083.64V416ZM1024.36 426.598L1007.56 283.798L983.726 286.602L1000.53 429.402L1024.36 426.598ZM985.617 278.607L908.817 395.407L928.87 408.593L1005.67 291.793L985.617 278.607ZM928.886 395.431L852.486 278.631L832.401 291.769L908.801 408.569L928.886 395.431ZM1126.69 148V136H1114.69V148H1126.69ZM1195.49 148H1207.49V136H1195.49V148ZM1195.49 428V440H1207.49V428H1195.49ZM1126.69 428H1114.69V440H1126.69V428ZM1126.69 160H1195.49V136H1126.69V160ZM1183.49 148V428H1207.49V148H1183.49ZM1195.49 416H1126.69V440H1195.49V416ZM1138.69 428V148H1114.69V428H1138.69ZM1285.62 329.6L1296.12 323.796L1289.58 311.958L1278.6 319.863L1285.62 329.6ZM1304.42 356L1295.63 364.165L1295.7 364.248L1295.78 364.33L1304.42 356ZM1327.62 373.2L1322.39 384.002L1322.46 384.034L1322.53 384.066L1327.62 373.2ZM1378.82 372L1386.02 381.6L1386.14 381.506L1386.27 381.409L1378.82 372ZM1382.82 334.4L1373.56 342.028L1373.67 342.167L1373.79 342.302L1382.82 334.4ZM1364.82 321.6L1359.59 332.402L1359.59 332.402L1364.82 321.6ZM1332.02 308L1336.21 296.755L1336.15 296.732L1336.08 296.709L1332.02 308ZM1308.82 298L1303.45 308.733L1303.52 308.766L1303.58 308.798L1308.82 298ZM1284.42 281.6L1276.41 290.535L1276.5 290.613L1276.58 290.689L1284.42 281.6ZM1265.22 256.8L1254.54 262.282L1254.57 262.342L1254.61 262.401L1265.22 256.8ZM1270.42 178.4L1260.74 171.304L1260.69 171.374L1260.64 171.446L1270.42 178.4ZM1305.62 151.2L1310.25 162.271L1310.3 162.251L1310.35 162.23L1305.62 151.2ZM1403.62 150.8L1398.69 161.739L1398.73 161.757L1398.76 161.774L1403.62 150.8ZM1438.02 174L1429.41 182.361L1429.41 182.361L1438.02 174ZM1458.82 202.4L1464.67 212.878L1474.68 207.29L1469.55 197.033L1458.82 202.4ZM1407.22 231.2L1396.93 237.374L1402.91 247.346L1413.07 241.678L1407.22 231.2ZM1393.22 214L1384.73 222.485L1384.96 222.708L1385.19 222.92L1393.22 214ZM1376.02 202.4L1370.84 213.226L1371.12 213.358L1371.4 213.477L1376.02 202.4ZM1334.02 204.4L1341.45 213.819L1341.6 213.701L1341.75 213.579L1334.02 204.4ZM1333.62 236.4L1325.13 244.885L1325.25 245L1325.37 245.111L1333.62 236.4ZM1354.82 249.6L1349.98 260.579L1350.03 260.605L1350.09 260.63L1354.82 249.6ZM1388.42 262.4L1392.67 251.177L1392.51 251.118L1392.35 251.063L1388.42 262.4ZM1416.02 275.6L1409.89 285.918L1410.01 285.99L1410.14 286.059L1416.02 275.6ZM1438.42 293.2L1429.6 301.339L1429.68 301.429L1429.77 301.517L1438.42 293.2ZM1454.02 317.2L1442.92 321.769L1442.92 321.769L1454.02 317.2ZM1450.82 386.4L1440.19 380.832L1440.16 380.881L1440.14 380.929L1450.82 386.4ZM1427.62 414L1420.38 404.431L1420.31 404.479L1420.25 404.528L1427.62 414ZM1394.42 430.8L1390.99 419.299L1390.85 419.343L1390.7 419.391L1394.42 430.8ZM1305.62 427.2L1300.87 438.22L1300.98 438.269L1301.1 438.316L1305.62 427.2ZM1265.22 400.4L1256.83 408.985L1256.83 408.985L1265.22 400.4ZM1238.42 363.6L1231.4 353.863L1223.25 359.735L1227.6 368.793L1238.42 363.6ZM1275.12 335.404C1281.12 346.278 1287.95 355.895 1295.63 364.165L1313.21 347.835C1307.03 341.172 1301.31 333.189 1296.12 323.796L1275.12 335.404ZM1295.78 364.33C1303.84 372.684 1312.7 379.311 1322.39 384.002L1332.85 362.398C1326.01 359.089 1319.4 354.249 1313.06 347.67L1295.78 364.33ZM1322.53 384.066C1332.64 388.805 1343.31 391.2 1354.42 391.2V367.2C1346.86 367.2 1339.67 365.595 1332.71 362.334L1322.53 384.066ZM1354.42 391.2C1366.26 391.2 1377.1 388.292 1386.02 381.6L1371.62 362.4C1367.74 365.308 1362.31 367.2 1354.42 367.2V391.2ZM1386.27 381.409C1395.69 373.949 1400.42 363.607 1400.42 351.6H1376.42C1376.42 356.659 1374.75 359.918 1371.37 362.591L1386.27 381.409ZM1400.42 351.6C1400.42 342.302 1397.97 333.492 1391.85 326.498L1373.79 342.302C1375.13 343.841 1376.42 346.498 1376.42 351.6H1400.42ZM1392.08 326.772C1386.8 320.36 1379.08 315.171 1370.05 310.798L1359.59 332.402C1367.09 336.029 1371.37 339.373 1373.56 342.028L1392.08 326.772ZM1370.05 310.798C1361.3 306.569 1349.98 301.887 1336.21 296.755L1327.83 319.245C1341.25 324.246 1351.8 328.631 1359.59 332.402L1370.05 310.798ZM1336.08 296.709C1329.93 294.495 1322.6 291.348 1314.05 287.202L1303.58 308.798C1312.63 313.185 1320.77 316.705 1327.95 319.291L1336.08 296.709ZM1314.19 287.267C1306.6 283.474 1299.29 278.575 1292.25 272.511L1276.58 290.689C1285.02 297.958 1293.97 303.993 1303.45 308.733L1314.19 287.267ZM1292.43 272.665C1285.8 266.723 1280.27 259.6 1275.83 251.199L1254.61 262.401C1260.31 273.2 1267.57 282.611 1276.41 290.535L1292.43 272.665ZM1275.89 251.318C1271.89 243.519 1269.62 233.627 1269.62 221.2H1245.62C1245.62 236.506 1248.42 250.347 1254.54 262.282L1275.89 251.318ZM1269.62 221.2C1269.62 206.84 1273.28 195.078 1280.2 185.354L1260.64 171.446C1250.49 185.722 1245.62 202.493 1245.62 221.2H1269.62ZM1280.1 185.496C1287.52 175.376 1297.45 167.623 1310.25 162.271L1300.99 140.129C1284.45 147.044 1270.92 157.424 1260.74 171.304L1280.1 185.496ZM1310.35 162.23C1323.62 156.54 1338.52 153.6 1355.22 153.6V129.6C1335.65 129.6 1317.48 133.06 1300.89 140.17L1310.35 162.23ZM1355.22 153.6C1372.6 153.6 1386.97 156.457 1398.69 161.739L1408.55 139.861C1393.06 132.876 1375.17 129.6 1355.22 129.6V153.6ZM1398.76 161.774C1411.45 167.387 1421.58 174.298 1429.41 182.361L1446.63 165.639C1436.33 155.035 1423.52 146.48 1408.47 139.826L1398.76 161.774ZM1429.41 182.361C1437.8 190.992 1443.94 199.473 1448.09 207.767L1469.55 197.033C1464.1 186.127 1456.38 175.674 1446.63 165.639L1429.41 182.361ZM1452.97 191.922L1401.37 220.722L1413.07 241.678L1464.67 212.878L1452.97 191.922ZM1417.51 225.026C1412.95 217.422 1407.54 210.742 1401.25 205.08L1385.19 222.92C1389.57 226.858 1393.49 231.645 1396.93 237.374L1417.51 225.026ZM1401.7 205.515C1395.57 199.378 1388.53 194.613 1380.63 191.323L1371.4 213.477C1376.31 215.52 1380.74 218.489 1384.73 222.485L1401.7 205.515ZM1381.2 191.574C1373.35 187.823 1364.9 186 1356.02 186V210C1361.54 210 1366.42 211.111 1370.84 213.226L1381.2 191.574ZM1356.02 186C1344.83 186 1334.31 188.467 1326.29 195.221L1341.75 213.579C1343.86 211.8 1348.01 210 1356.02 210V186ZM1326.58 194.981C1318.81 201.119 1314.42 209.577 1314.42 219.6H1338.42C1338.42 217.357 1339.1 215.681 1341.45 213.819L1326.58 194.981ZM1314.42 219.6C1314.42 229.391 1318.23 237.986 1325.13 244.885L1342.1 227.915C1339.4 225.214 1338.42 222.609 1338.42 219.6H1314.42ZM1325.37 245.111C1331.75 251.163 1340.14 256.238 1349.98 260.579L1359.66 238.621C1351.37 234.962 1345.62 231.237 1341.87 227.689L1325.37 245.111ZM1350.09 260.63C1359.76 264.773 1371.24 269.141 1384.49 273.737L1392.35 251.063C1379.46 246.592 1368.54 242.427 1359.55 238.57L1350.09 260.63ZM1384.17 273.623C1393.43 277.126 1401.99 281.229 1409.89 285.918L1422.15 265.282C1412.98 259.838 1403.14 255.141 1392.67 251.177L1384.17 273.623ZM1410.14 286.059C1417.62 290.267 1424.08 295.362 1429.6 301.339L1447.24 285.061C1439.95 277.171 1431.49 270.533 1421.9 265.141L1410.14 286.059ZM1429.77 301.517C1435.37 307.344 1439.75 314.066 1442.92 321.769L1465.11 312.631C1460.82 302.2 1454.8 292.922 1447.07 284.883L1429.77 301.517ZM1442.92 321.769C1445.95 329.131 1447.62 337.932 1447.62 348.4H1471.62C1471.62 335.401 1469.55 323.402 1465.11 312.631L1442.92 321.769ZM1447.62 348.4C1447.62 360.826 1445.05 371.544 1440.19 380.832L1461.45 391.968C1468.32 378.856 1471.62 364.241 1471.62 348.4H1447.62ZM1440.14 380.929C1435.37 390.243 1428.81 398.046 1420.38 404.431L1434.86 423.569C1446.16 415.021 1455.07 404.423 1461.5 391.871L1440.14 380.929ZM1420.25 404.528C1411.91 411.012 1402.21 415.959 1390.99 419.299L1397.84 442.301C1411.7 438.174 1424.12 431.921 1434.99 423.472L1420.25 404.528ZM1390.7 419.391C1379.65 422.995 1368.24 424.8 1356.42 424.8V448.8C1370.73 448.8 1384.66 446.605 1398.14 442.209L1390.7 419.391ZM1356.42 424.8C1339.73 424.8 1324.34 421.862 1310.14 416.084L1301.1 438.316C1318.36 445.338 1336.84 448.8 1356.42 448.8V424.8ZM1310.37 416.18C1296.18 410.066 1283.97 401.936 1273.6 391.815L1256.83 408.985C1269.41 421.264 1284.12 431.001 1300.87 438.22L1310.37 416.18ZM1273.6 391.815C1263.06 381.513 1254.98 370.375 1249.24 358.407L1227.6 368.793C1234.66 383.492 1244.45 396.887 1256.83 408.985L1273.6 391.815ZM1245.43 373.337L1292.63 339.337L1278.6 319.863L1231.4 353.863L1245.43 373.337ZM1476.82 208.4H1464.82V220.4H1476.82V208.4ZM1476.82 148V136H1464.82V148H1476.82ZM1698.42 148H1710.42V136H1698.42V148ZM1698.42 208.4V220.4H1710.42V208.4H1698.42ZM1621.22 208.4V196.4H1609.22V208.4H1621.22ZM1621.22 428V440H1633.22V428H1621.22ZM1553.62 428H1541.62V440H1553.62V428ZM1553.62 208.4H1565.62V196.4H1553.62V208.4ZM1488.82 208.4V148H1464.82V208.4H1488.82ZM1476.82 160H1698.42V136H1476.82V160ZM1686.42 148V208.4H1710.42V148H1686.42ZM1698.42 196.4H1621.22V220.4H1698.42V196.4ZM1609.22 208.4V428H1633.22V208.4H1609.22ZM1621.22 416H1553.62V440H1621.22V416ZM1565.62 428V208.4H1541.62V428H1565.62ZM1553.62 196.4H1476.82V220.4H1553.62V196.4Z" fill="#3C0753" mask="url(#path-2-outside-1_206_5)"/>
</svg>
