<svg width="1745" height="494" viewBox="0 0 1745 494" fill="none" xmlns="http://www.w3.org/2000/svg">
<path d="M83.6 385L88.4 333.4H227.2L231.6 385H83.6ZM156.8 261.8L117.6 352.2L120.8 367L86 439H9.6L156.8 141.4L304.4 439H227.6L194 369.8L196.4 352.6L156.8 261.8ZM526.941 159H592.141V453L398.541 281.4V439H333.741V145L526.941 316.6V159ZM651.319 159H720.119V439H651.319V159ZM851.444 296.2L834.644 439H763.444L808.644 145L927.844 315.8L1047.44 145L1092.64 439H1021.44L1004.64 296.2L927.844 413L851.444 296.2ZM1135.69 159H1204.49V439H1135.69V159ZM1294.62 340.6C1300.22 350.733 1306.49 359.533 1313.42 367C1320.62 374.467 1328.35 380.2 1336.62 384.2C1345.15 388.2 1354.09 390.2 1363.42 390.2C1373.29 390.2 1381.42 387.8 1387.82 383C1394.22 377.933 1397.42 371.133 1397.42 362.6C1397.42 355.4 1395.55 349.667 1391.82 345.4C1388.09 340.867 1382.09 336.6 1373.82 332.6C1365.55 328.6 1354.62 324.067 1341.02 319C1334.35 316.6 1326.62 313.267 1317.82 309C1309.29 304.733 1301.15 299.267 1293.42 292.6C1285.69 285.667 1279.29 277.4 1274.22 267.8C1269.15 257.933 1266.62 246.067 1266.62 232.2C1266.62 215.667 1270.89 201.4 1279.42 189.4C1288.22 177.4 1299.95 168.333 1314.62 162.2C1329.55 155.8 1346.09 152.6 1364.22 152.6C1382.89 152.6 1399.02 155.667 1412.62 161.8C1426.49 167.933 1437.95 175.667 1447.02 185C1456.09 194.333 1463.02 203.8 1467.82 213.4L1416.22 242.2C1412.22 235.533 1407.55 229.8 1402.22 225C1397.15 219.933 1391.42 216.067 1385.02 213.4C1378.89 210.467 1372.22 209 1365.02 209C1355.42 209 1348.09 211.133 1343.02 215.4C1337.95 219.4 1335.42 224.467 1335.42 230.6C1335.42 237 1337.82 242.6 1342.62 247.4C1347.69 252.2 1354.75 256.6 1363.82 260.6C1373.15 264.6 1384.35 268.867 1397.42 273.4C1407.29 277.133 1416.49 281.533 1425.02 286.6C1433.55 291.4 1441.02 297.267 1447.42 304.2C1454.09 311.133 1459.29 319.133 1463.02 328.2C1466.75 337.267 1468.62 347.667 1468.62 359.4C1468.62 373.533 1465.69 386.2 1459.82 397.4C1454.22 408.333 1446.49 417.533 1436.62 425C1427.02 432.467 1415.95 438.067 1403.42 441.8C1391.15 445.8 1378.49 447.8 1365.42 447.8C1347.29 447.8 1330.35 444.6 1314.62 438.2C1299.15 431.533 1285.69 422.6 1274.22 411.4C1262.75 400.2 1253.82 387.933 1247.42 374.6L1294.62 340.6ZM1485.82 219.4V159H1707.42V219.4H1630.22V439H1562.62V219.4H1485.82Z" fill="#910A67"/>
<mask id="path-2-outside-1_206_5" maskUnits="userSpaceOnUse" x="-24" y="94" width="1738" height="382" fill="black">
<rect fill="white" x="-24" y="94" width="1738" height="382"/>
<path d="M74.6 374L79.4 322.4H218.2L222.6 374H74.6ZM147.8 250.8L108.6 341.2L111.8 356L77 428H0.6L147.8 130.4L295.4 428H218.6L185 358.8L187.4 341.6L147.8 250.8ZM517.941 148H583.141V442L389.541 270.4V428H324.741V134L517.941 305.6V148ZM642.319 148H711.119V428H642.319V148ZM842.444 285.2L825.644 428H754.444L799.644 134L918.844 304.8L1038.44 134L1083.64 428H1012.44L995.644 285.2L918.844 402L842.444 285.2ZM1126.69 148H1195.49V428H1126.69V148ZM1285.62 329.6C1291.22 339.733 1297.49 348.533 1304.42 356C1311.62 363.467 1319.35 369.2 1327.62 373.2C1336.15 377.2 1345.09 379.2 1354.42 379.2C1364.29 379.2 1372.42 376.8 1378.82 372C1385.22 366.933 1388.42 360.133 1388.42 351.6C1388.42 344.4 1386.55 338.667 1382.82 334.4C1379.09 329.867 1373.09 325.6 1364.82 321.6C1356.55 317.6 1345.62 313.067 1332.02 308C1325.35 305.6 1317.62 302.267 1308.82 298C1300.29 293.733 1292.15 288.267 1284.42 281.6C1276.69 274.667 1270.29 266.4 1265.22 256.8C1260.15 246.933 1257.62 235.067 1257.62 221.2C1257.62 204.667 1261.89 190.4 1270.42 178.4C1279.22 166.4 1290.95 157.333 1305.62 151.2C1320.55 144.8 1337.09 141.6 1355.22 141.6C1373.89 141.6 1390.02 144.667 1403.62 150.8C1417.49 156.933 1428.95 164.667 1438.02 174C1447.09 183.333 1454.02 192.8 1458.82 202.4L1407.22 231.2C1403.22 224.533 1398.55 218.8 1393.22 214C1388.15 208.933 1382.42 205.067 1376.02 202.4C1369.89 199.467 1363.22 198 1356.02 198C1346.42 198 1339.09 200.133 1334.02 204.4C1328.95 208.4 1326.42 213.467 1326.42 219.6C1326.42 226 1328.82 231.6 1333.62 236.4C1338.69 241.2 1345.75 245.6 1354.82 249.6C1364.15 253.6 1375.35 257.867 1388.42 262.4C1398.29 266.133 1407.49 270.533 1416.02 275.6C1424.55 280.4 1432.02 286.267 1438.42 293.2C1445.09 300.133 1450.29 308.133 1454.02 317.2C1457.75 326.267 1459.62 336.667 1459.62 348.4C1459.62 362.533 1456.69 375.2 1450.82 386.4C1445.22 397.333 1437.49 406.533 1427.62 414C1418.02 421.467 1406.95 427.067 1394.42 430.8C1382.15 434.8 1369.49 436.8 1356.42 436.8C1338.29 436.8 1321.35 433.6 1305.62 427.2C1290.15 420.533 1276.69 411.6 1265.22 400.4C1253.75 389.2 1244.82 376.933 1238.42 363.6L1285.62 329.6ZM1476.82 208.4V148H1698.42V208.4H1621.22V428H1553.62V208.4H1476.82Z"/>
</mask>
<path d="M74.6 374L59.6645 372.611L58.1399 389H74.6V374ZM79.4 322.4V307.4H65.7306L64.4645 321.011L79.4 322.4ZM218.2 322.4L233.146 321.126L231.975 307.4H218.2V322.4ZM222.6 374V389H238.934L237.546 372.726L222.6 374ZM147.8 250.8L161.549 244.804L147.761 213.187L134.038 244.832L147.8 250.8ZM108.6 341.2L94.8382 335.232L92.9197 339.657L93.9388 344.37L108.6 341.2ZM111.8 356L125.305 362.528L127.553 357.878L126.461 352.83L111.8 356ZM77 428V443H86.4102L90.5052 434.528L77 428ZM0.6 428L-12.8452 421.35L-23.554 443H0.6V428ZM147.8 130.4L161.238 123.735L147.782 96.6039L134.355 123.75L147.8 130.4ZM295.4 428V443H319.583L308.838 421.335L295.4 428ZM218.6 428L205.107 434.552L209.209 443H218.6V428ZM185 358.8L170.144 356.727L169.513 361.247L171.507 365.352L185 358.8ZM187.4 341.6L202.256 343.673L202.841 339.482L201.149 335.604L187.4 341.6ZM89.5355 375.389L94.3355 323.789L64.4645 321.011L59.6645 372.611L89.5355 375.389ZM79.4 337.4H218.2V307.4H79.4V337.4ZM203.254 323.674L207.654 375.274L237.546 372.726L233.146 321.126L203.254 323.674ZM222.6 359H74.6V389H222.6V359ZM134.038 244.832L94.8382 335.232L122.362 347.168L161.562 256.768L134.038 244.832ZM93.9388 344.37L97.1388 359.17L126.461 352.83L123.261 338.03L93.9388 344.37ZM98.2948 349.472L63.4948 421.472L90.5052 434.528L125.305 362.528L98.2948 349.472ZM77 413H0.6V443H77V413ZM14.0452 434.65L161.245 137.05L134.355 123.75L-12.8452 421.35L14.0452 434.65ZM134.362 137.065L281.962 434.665L308.838 421.335L161.238 123.735L134.362 137.065ZM295.4 413H218.6V443H295.4V413ZM232.094 421.448L198.494 352.248L171.507 365.352L205.107 434.552L232.094 421.448ZM199.856 360.873L202.256 343.673L172.544 339.527L170.144 356.727L199.856 360.873ZM201.149 335.604L161.549 244.804L134.051 256.796L173.651 347.596L201.149 335.604ZM517.941 148V133H502.941V148H517.941ZM583.141 148H598.141V133H583.141V148ZM583.141 442L573.191 453.225L598.141 475.34V442H583.141ZM389.541 270.4L399.49 259.175L374.541 237.06V270.4H389.541ZM389.541 428V443H404.541V428H389.541ZM324.741 428H309.741V443H324.741V428ZM324.741 134L334.702 122.785L309.741 100.615V134H324.741ZM517.941 305.6L507.98 316.815L532.941 338.985V305.6H517.941ZM517.941 163H583.141V133H517.941V163ZM568.141 148V442H598.141V148H568.141ZM593.09 430.775L399.49 259.175L379.591 281.625L573.191 453.225L593.09 430.775ZM374.541 270.4V428H404.541V270.4H374.541ZM389.541 413H324.741V443H389.541V413ZM339.741 428V134H309.741V428H339.741ZM314.779 145.215L507.98 316.815L527.902 294.385L334.702 122.785L314.779 145.215ZM532.941 305.6V148H502.941V305.6H532.941ZM642.319 148V133H627.319V148H642.319ZM711.119 148H726.119V133H711.119V148ZM711.119 428V443H726.119V428H711.119ZM642.319 428H627.319V443H642.319V428ZM642.319 163H711.119V133H642.319V163ZM696.119 148V428H726.119V148H696.119ZM711.119 413H642.319V443H711.119V413ZM657.319 428V148H627.319V428H657.319ZM842.444 285.2L854.997 276.989L832.375 242.405L827.546 283.447L842.444 285.2ZM825.644 428V443H838.982L840.541 429.753L825.644 428ZM754.444 428L739.618 425.721L736.961 443H754.444V428ZM799.644 134L811.944 125.415L790.509 94.7015L784.818 131.721L799.644 134ZM918.844 304.8L906.543 313.385L918.823 330.98L931.131 313.404L918.844 304.8ZM1038.44 134L1053.27 131.721L1047.59 94.7857L1026.16 125.396L1038.44 134ZM1083.64 428V443H1101.13L1098.47 425.721L1083.64 428ZM1012.44 428L997.546 429.753L999.105 443H1012.44V428ZM995.644 285.2L1010.54 283.447L1005.73 242.558L983.11 276.959L995.644 285.2ZM918.844 402L906.291 410.211L918.811 429.352L931.377 410.241L918.844 402ZM827.546 283.447L810.746 426.247L840.541 429.753L857.341 286.953L827.546 283.447ZM825.644 413H754.444V443H825.644V413ZM769.27 430.279L814.47 136.279L784.818 131.721L739.618 425.721L769.27 430.279ZM787.343 142.585L906.543 313.385L931.144 296.215L811.944 125.415L787.343 142.585ZM931.131 313.404L1050.73 142.604L1026.16 125.396L906.557 296.196L931.131 313.404ZM1023.62 136.279L1068.82 430.279L1098.47 425.721L1053.27 131.721L1023.62 136.279ZM1083.64 413H1012.44V443H1083.64V413ZM1027.34 426.247L1010.54 283.447L980.747 286.953L997.546 429.753L1027.34 426.247ZM983.11 276.959L906.31 393.759L931.377 410.241L1008.18 293.441L983.11 276.959ZM931.397 393.789L854.997 276.989L829.891 293.411L906.291 410.211L931.397 393.789ZM1126.69 148V133H1111.69V148H1126.69ZM1195.49 148H1210.49V133H1195.49V148ZM1195.49 428V443H1210.49V428H1195.49ZM1126.69 428H1111.69V443H1126.69V428ZM1126.69 163H1195.49V133H1126.69V163ZM1180.49 148V428H1210.49V148H1180.49ZM1195.49 413H1126.69V443H1195.49V413ZM1141.69 428V148H1111.69V428H1141.69ZM1285.62 329.6L1298.75 322.345L1290.57 307.547L1276.85 317.429L1285.62 329.6ZM1304.42 356L1293.43 366.207L1293.52 366.31L1293.62 366.412L1304.42 356ZM1327.62 373.2L1321.09 386.702L1321.17 386.743L1321.25 386.782L1327.62 373.2ZM1378.82 372L1387.82 384L1387.98 383.882L1388.13 383.761L1378.82 372ZM1382.82 334.4L1371.24 343.936L1371.38 344.109L1371.53 344.278L1382.82 334.4ZM1364.82 321.6L1358.29 335.102L1358.29 335.102L1364.82 321.6ZM1332.02 308L1337.26 293.944L1337.18 293.915L1337.1 293.887L1332.02 308ZM1308.82 298L1302.11 311.416L1302.19 311.457L1302.27 311.497L1308.82 298ZM1284.42 281.6L1274.41 292.769L1274.51 292.866L1274.62 292.961L1284.42 281.6ZM1265.22 256.8L1251.88 263.652L1251.91 263.727L1251.95 263.801L1265.22 256.8ZM1270.42 178.4L1258.32 169.53L1258.26 169.618L1258.19 169.707L1270.42 178.4ZM1305.62 151.2L1311.41 165.039L1311.47 165.013L1311.53 164.987L1305.62 151.2ZM1403.62 150.8L1397.45 164.474L1397.5 164.496L1397.55 164.518L1403.62 150.8ZM1438.02 174L1427.26 184.452L1427.26 184.452L1438.02 174ZM1458.82 202.4L1466.13 215.498L1478.65 208.512L1472.24 195.692L1458.82 202.4ZM1407.22 231.2L1394.36 238.917L1401.84 251.383L1414.53 244.298L1407.22 231.2ZM1393.22 214L1382.61 224.607L1382.89 224.886L1383.18 225.149L1393.22 214ZM1376.02 202.4L1369.55 215.932L1369.89 216.098L1370.25 216.246L1376.02 202.4ZM1334.02 204.4L1343.31 216.173L1343.5 216.026L1343.68 215.874L1334.02 204.4ZM1333.62 236.4L1323.01 247.007L1323.16 247.15L1323.3 247.289L1333.62 236.4ZM1354.82 249.6L1348.76 263.324L1348.84 263.356L1348.91 263.387L1354.82 249.6ZM1388.42 262.4L1393.73 248.371L1393.53 248.297L1393.34 248.229L1388.42 262.4ZM1416.02 275.6L1408.36 288.498L1408.51 288.588L1408.66 288.674L1416.02 275.6ZM1438.42 293.2L1427.4 303.374L1427.5 303.486L1427.61 303.597L1438.42 293.2ZM1454.02 317.2L1440.15 322.911L1440.15 322.911L1454.02 317.2ZM1450.82 386.4L1437.53 379.44L1437.5 379.501L1437.47 379.562L1450.82 386.4ZM1427.62 414L1418.57 402.039L1418.49 402.099L1418.41 402.16L1427.62 414ZM1394.42 430.8L1390.14 416.424L1389.95 416.479L1389.77 416.539L1394.42 430.8ZM1305.62 427.2L1299.68 440.975L1299.82 441.036L1299.97 441.094L1305.62 427.2ZM1265.22 400.4L1254.74 411.131L1254.74 411.131L1265.22 400.4ZM1238.42 363.6L1229.65 351.429L1219.46 358.769L1224.9 370.091L1238.42 363.6ZM1272.49 336.855C1278.6 347.914 1285.56 357.735 1293.43 366.207L1315.41 345.793C1309.41 339.331 1303.84 331.553 1298.75 322.345L1272.49 336.855ZM1293.62 366.412C1301.89 374.989 1311.03 381.839 1321.09 386.702L1334.15 359.698C1327.67 356.561 1321.35 351.944 1315.22 345.588L1293.62 366.412ZM1321.25 386.782C1331.76 391.706 1342.86 394.2 1354.42 394.2V364.2C1347.31 364.2 1340.55 362.694 1333.99 359.618L1321.25 386.782ZM1354.42 394.2C1366.76 394.2 1378.27 391.165 1387.82 384L1369.82 360C1366.57 362.435 1361.81 364.2 1354.42 364.2V394.2ZM1388.13 383.761C1398.31 375.703 1403.42 364.476 1403.42 351.6H1373.42C1373.42 355.791 1372.13 358.164 1369.51 360.239L1388.13 383.761ZM1403.42 351.6C1403.42 341.777 1400.82 332.199 1394.11 324.522L1371.53 344.278C1372.28 345.135 1373.42 347.023 1373.42 351.6H1403.42ZM1394.4 324.864C1388.73 317.984 1380.58 312.564 1371.35 308.098L1358.29 335.102C1365.59 338.636 1369.44 341.75 1371.24 343.936L1394.4 324.864ZM1371.35 308.098C1362.49 303.811 1351.08 299.092 1337.26 293.944L1326.78 322.056C1340.16 327.041 1350.61 331.389 1358.29 335.102L1371.35 308.098ZM1337.1 293.887C1331.08 291.719 1323.85 288.618 1315.36 284.503L1302.27 311.497C1311.39 315.915 1319.63 319.481 1326.94 322.113L1337.1 293.887ZM1315.53 284.584C1308.18 280.909 1301.07 276.152 1294.21 270.239L1274.62 292.961C1283.23 300.381 1292.39 306.557 1302.11 311.416L1315.53 284.584ZM1294.43 270.431C1288.08 264.737 1282.76 257.9 1278.48 249.799L1251.95 263.801C1257.81 274.9 1265.29 284.597 1274.41 292.769L1294.43 270.431ZM1278.56 249.948C1274.82 242.666 1272.62 233.267 1272.62 221.2H1242.62C1242.62 236.866 1245.48 251.201 1251.88 263.652L1278.56 249.948ZM1272.62 221.2C1272.62 207.383 1276.13 196.247 1282.64 187.093L1258.19 169.707C1247.64 184.553 1242.62 201.95 1242.62 221.2H1272.62ZM1282.51 187.27C1289.59 177.62 1299.08 170.195 1311.41 165.039L1299.83 137.361C1282.83 144.472 1268.85 155.18 1258.32 169.53L1282.51 187.27ZM1311.53 164.987C1324.39 159.475 1338.88 156.6 1355.22 156.6V126.6C1335.29 126.6 1316.72 130.125 1299.71 137.413L1311.53 164.987ZM1355.22 156.6C1372.28 156.6 1386.21 159.405 1397.45 164.474L1409.79 137.126C1393.82 129.928 1375.49 126.6 1355.22 126.6V156.6ZM1397.55 164.518C1409.95 170 1419.74 176.706 1427.26 184.452L1448.78 163.548C1438.17 152.627 1425.03 143.866 1409.69 137.082L1397.55 164.518ZM1427.26 184.452C1435.47 192.907 1441.42 201.141 1445.4 209.108L1472.24 195.692C1466.62 184.459 1458.7 173.76 1448.78 163.548L1427.26 184.452ZM1451.51 189.302L1399.91 218.102L1414.53 244.298L1466.13 215.498L1451.51 189.302ZM1420.08 223.483C1415.38 215.644 1409.78 208.727 1403.25 202.851L1383.18 225.149C1387.32 228.873 1391.06 233.423 1394.36 238.917L1420.08 223.483ZM1403.83 203.393C1397.42 196.989 1390.06 191.999 1381.79 188.554L1370.25 216.246C1374.78 218.134 1378.88 220.878 1382.61 224.607L1403.83 203.393ZM1382.49 188.868C1374.22 184.912 1365.32 183 1356.02 183V213C1361.11 213 1365.55 214.022 1369.55 215.932L1382.49 188.868ZM1356.02 183C1344.44 183 1333.12 185.55 1324.36 192.926L1343.68 215.874C1345.05 214.717 1348.4 213 1356.02 213V183ZM1324.72 192.627C1316.27 199.298 1311.42 208.604 1311.42 219.6H1341.42C1341.42 218.329 1341.63 217.501 1343.31 216.173L1324.72 192.627ZM1311.42 219.6C1311.42 230.238 1315.59 239.583 1323.01 247.007L1344.23 225.793C1342.05 223.617 1341.42 221.762 1341.42 219.6H1311.42ZM1323.3 247.289C1330.02 253.654 1338.73 258.897 1348.76 263.324L1360.87 235.876C1352.77 232.303 1347.35 228.746 1343.93 225.511L1323.3 247.289ZM1348.91 263.387C1358.66 267.567 1370.21 271.96 1383.5 276.571L1393.34 248.229C1380.49 243.773 1369.64 239.633 1360.73 235.813L1348.91 263.387ZM1383.11 276.429C1392.21 279.874 1400.62 283.903 1408.36 288.498L1423.68 262.702C1414.35 257.164 1404.36 252.393 1393.73 248.371L1383.11 276.429ZM1408.66 288.674C1415.88 292.734 1422.1 297.636 1427.4 303.374L1449.44 283.026C1441.94 274.897 1433.22 268.066 1423.37 262.526L1408.66 288.674ZM1427.61 303.597C1432.94 309.147 1437.12 315.55 1440.15 322.911L1467.89 311.489C1463.45 300.717 1457.23 291.12 1449.23 282.803L1427.61 303.597ZM1440.15 322.911C1443 329.847 1444.62 338.249 1444.62 348.4H1474.62C1474.62 335.085 1472.5 322.686 1467.89 311.489L1440.15 322.911ZM1444.62 348.4C1444.62 360.399 1442.15 370.63 1437.53 379.44L1464.11 393.36C1471.22 379.77 1474.62 364.668 1474.62 348.4H1444.62ZM1437.47 379.562C1432.91 388.471 1426.65 395.924 1418.57 402.039L1436.67 425.961C1448.32 417.142 1457.53 406.196 1464.17 393.238L1437.47 379.562ZM1418.41 402.16C1410.39 408.399 1401.02 413.182 1390.14 416.424L1398.7 445.176C1412.88 440.951 1425.65 434.534 1436.83 425.84L1418.41 402.16ZM1389.77 416.539C1379.02 420.043 1367.93 421.8 1356.42 421.8V451.8C1371.04 451.8 1385.28 449.557 1399.07 445.061L1389.77 416.539ZM1356.42 421.8C1340.09 421.8 1325.09 418.927 1311.27 413.306L1299.97 441.094C1317.61 448.273 1336.48 451.8 1356.42 451.8V421.8ZM1311.56 413.425C1297.69 407.449 1285.79 399.52 1275.7 389.669L1254.74 411.131C1267.59 423.68 1282.61 433.618 1299.68 440.975L1311.56 413.425ZM1275.7 389.669C1265.38 379.591 1257.52 368.735 1251.94 357.109L1224.9 370.091C1232.12 385.132 1242.12 398.809 1254.74 411.131L1275.7 389.669ZM1247.19 375.771L1294.39 341.771L1276.85 317.429L1229.65 351.429L1247.19 375.771ZM1476.82 208.4H1461.82V223.4H1476.82V208.4ZM1476.82 148V133H1461.82V148H1476.82ZM1698.42 148H1713.42V133H1698.42V148ZM1698.42 208.4V223.4H1713.42V208.4H1698.42ZM1621.22 208.4V193.4H1606.22V208.4H1621.22ZM1621.22 428V443H1636.22V428H1621.22ZM1553.62 428H1538.62V443H1553.62V428ZM1553.62 208.4H1568.62V193.4H1553.62V208.4ZM1491.82 208.4V148H1461.82V208.4H1491.82ZM1476.82 163H1698.42V133H1476.82V163ZM1683.42 148V208.4H1713.42V148H1683.42ZM1698.42 193.4H1621.22V223.4H1698.42V193.4ZM1606.22 208.4V428H1636.22V208.4H1606.22ZM1621.22 413H1553.62V443H1621.22V413ZM1568.62 428V208.4H1538.62V428H1568.62ZM1553.62 193.4H1476.82V223.4H1553.62V193.4Z" fill="white" mask="url(#path-2-outside-1_206_5)"/>
</svg>
