<svg width="1839" height="1001" viewBox="0 0 1839 1001" fill="none" xmlns="http://www.w3.org/2000/svg">
<mask id="path-1-outside-1_206_5" maskUnits="userSpaceOnUse" x="578" y="191" width="681" height="687" fill="black">
<rect fill="white" x="578" y="191" width="681" height="687"/>
<path d="M772.851 740.99L782.363 638.735H1057.42L1066.14 740.99H772.851ZM917.91 496.847L840.228 675.991L846.57 705.319L777.607 848H626.207L917.91 258.253L1210.41 848H1058.21L991.628 710.868L996.384 676.783L917.91 496.847Z"/>
</mask>
<path d="M772.851 740.99L743.254 738.236L740.233 770.715H772.851V740.99ZM782.363 638.735V609.01H755.275L752.766 635.982L782.363 638.735ZM1057.42 638.735L1087.04 636.21L1084.72 609.01H1057.42V638.735ZM1066.14 740.99V770.715H1098.51L1095.76 738.464L1066.14 740.99ZM917.91 496.847L945.157 484.964L917.832 422.31L890.638 485.021L917.91 496.847ZM840.228 675.991L812.957 664.165L809.155 672.932L811.175 682.272L840.228 675.991ZM846.57 705.319L873.333 718.255L877.786 709.04L875.623 699.037L846.57 705.319ZM777.607 848V877.725H796.255L804.37 860.935L777.607 848ZM626.207 848L599.563 834.821L578.342 877.725H626.207V848ZM917.91 258.253L944.54 245.046L917.874 191.28L891.266 245.075L917.91 258.253ZM1210.41 848V877.725H1258.33L1237.04 834.792L1210.41 848ZM1058.21 848L1031.47 860.983L1039.6 877.725H1058.21V848ZM991.628 710.868L962.188 706.76L960.939 715.717L964.889 723.852L991.628 710.868ZM996.384 676.783L1025.82 680.891L1026.98 672.586L1023.63 664.9L996.384 676.783ZM802.449 743.743L811.961 641.488L752.766 635.982L743.254 738.236L802.449 743.743ZM782.363 668.46H1057.42V609.01H782.363V668.46ZM1027.8 641.261L1036.52 743.515L1095.76 738.464L1087.04 636.21L1027.8 641.261ZM1066.14 711.264H772.851V770.715H1066.14V711.264ZM890.638 485.021L812.957 664.165L867.5 687.816L945.181 508.673L890.638 485.021ZM811.175 682.272L817.516 711.601L875.623 699.037L869.282 669.709L811.175 682.272ZM819.807 692.384L750.844 835.065L804.37 860.935L873.333 718.255L819.807 692.384ZM777.607 818.275H626.207V877.725H777.607V818.275ZM652.851 861.179L944.554 271.432L891.266 245.075L599.563 834.821L652.851 861.179ZM891.28 271.461L1183.78 861.208L1237.04 834.792L944.54 245.046L891.28 271.461ZM1210.41 818.275H1058.21V877.725H1210.41V818.275ZM1084.95 835.017L1018.37 697.885L964.889 723.852L1031.47 860.983L1084.95 835.017ZM1021.07 714.976L1025.82 680.891L966.944 672.675L962.188 706.76L1021.07 714.976ZM1023.63 664.9L945.157 484.964L890.663 508.73L969.138 688.666L1023.63 664.9Z" fill="#E384FF" mask="url(#path-1-outside-1_206_5)"/>
<path d="M74.6 690.06L79.4 638.46H218.2L222.6 690.06H74.6ZM147.8 566.86L108.6 657.26L111.8 672.06L77 744.06H0.6L147.8 446.46L295.4 744.06H218.6L185 674.86L187.4 657.66L147.8 566.86ZM517.941 464.06H583.141V758.06L389.541 586.46V744.06H324.741V450.06L517.941 621.66V464.06ZM642.319 464.06H711.119V744.06H642.319V464.06ZM842.444 601.26L825.644 744.06H754.444L799.644 450.06L918.844 620.86L1038.44 450.06L1083.64 744.06H1012.44L995.644 601.26L918.844 718.06L842.444 601.26ZM1170.69 690.06L1175.49 638.46H1314.29L1318.69 690.06H1170.69ZM1243.89 566.86L1204.69 657.26L1207.89 672.06L1173.09 744.06H1096.69L1243.89 446.46L1391.49 744.06H1314.69L1281.09 674.86L1283.49 657.66L1243.89 566.86ZM1364.71 524.46V464.06H1586.31V524.46H1509.11V744.06H1441.51V524.46H1364.71ZM1661.73 744.06V688.46H1802.93V744.06H1661.73ZM1661.73 519.66V464.06H1802.93V519.66H1661.73ZM1661.73 624.06V569.66H1794.93V624.06H1661.73ZM1616.93 464.06H1681.73V744.06H1616.93V464.06Z" fill="#865DFF"/>
</svg>
